<svg xmlns="http://www.w3.org/2000/svg" xmlns:xlink="http://www.w3.org/1999/xlink" viewBox="0,0,256,256" width="144px" height="144px"><g fill="none" fill-rule="nonzero" stroke="none" stroke-width="1" stroke-linecap="butt" stroke-linejoin="miter" stroke-miterlimit="10" stroke-dasharray="" stroke-dashoffset="0" font-family="none" font-weight="none" font-size="none" text-anchor="none" style="mix-blend-mode: normal"><g transform="translate(256,256.11686) rotate(180) scale(5.33333,5.33333)"><path d="M4,13h10v29.016c0,0.891 -1.077,1.337 -1.707,0.707l-7.815,-9.163c-0.308,-0.361 -0.478,-0.821 -0.478,-1.297z" fill="#fff"></path><path d="M34,13h10v19.263c0,0.476 -0.17,0.936 -0.478,1.298l-7.815,9.163c-0.63,0.629 -1.707,0.183 -1.707,-0.708z" fill="#fff"></path><path d="M12.706,5.266l11.294,10.734v15l-20,-18l7.323,-7.704c0.379,-0.378 0.988,-0.391 1.383,-0.03z" fill="#1A8D97"></path><path d="M36.249,5.255l-12.249,10.745v15l20,-18l-6.352,-7.64c-0.36,-0.411 -0.982,-0.458 -1.399,-0.105z" fill="#1A8D97"></path></g></g></svg>